<svg width="27" height="26" viewBox="0 0 27 26" fill="none" xmlns="http://www.w3.org/2000/svg">
<path fill-rule="evenodd" clip-rule="evenodd" d="M5.50909 2.16699H10.114C11.4863 2.16699 12.5987 3.24271 12.5987 4.56967V6.88692C12.5987 8.21388 11.4863 9.2896 10.114 9.2896H5.50909C4.13684 9.2896 3.02441 8.21388 3.02441 6.88692V4.56967C3.02441 3.24271 4.13684 2.16699 5.50909 2.16699ZM10.114 7.68781C10.5689 7.68206 10.9363 7.32684 10.9422 6.88692V4.56967C10.9363 4.12975 10.5689 3.77453 10.114 3.76878H5.50909C5.05416 3.77453 4.68681 4.12975 4.68086 4.56967V6.88692C4.68681 7.32684 5.05416 7.68206 5.50909 7.68781H10.114Z" fill="#9099AC"/>
<path fill-rule="evenodd" clip-rule="evenodd" d="M18.0318 2.16699H21.8969C23.2691 2.16699 24.3815 3.24271 24.3815 4.56967V11.8631C24.3815 13.1901 23.2691 14.2658 21.8969 14.2658H18.0318C17.3719 14.2687 16.7382 14.0164 16.2716 13.5652C15.805 13.114 15.5442 12.5012 15.5471 11.8631V4.56967C15.5471 3.24271 16.6596 2.16699 18.0318 2.16699ZM21.8969 12.664C22.3543 12.664 22.7251 12.3055 22.7251 11.8631V4.56967C22.7191 4.12975 22.3518 3.77453 21.8969 3.76878H18.0318C17.5744 3.76878 17.2036 4.12735 17.2036 4.56967V11.8631C17.2006 12.0764 17.2869 12.2818 17.4429 12.4327C17.5988 12.5835 17.8112 12.6669 18.0318 12.664H21.8969Z" fill="#9099AC"/>
<path fill-rule="evenodd" clip-rule="evenodd" d="M18.0318 17.117H21.8969C23.2691 17.117 24.3816 18.1927 24.3816 19.5197V21.1215C24.3816 22.4484 23.2691 23.5241 21.8969 23.5241H18.0318C16.6596 23.5241 15.5472 22.4484 15.5472 21.1215V19.5197C15.5472 18.1927 16.6596 17.117 18.0318 17.117ZM21.8969 21.9223C22.3518 21.9166 22.7192 21.5614 22.7251 21.1215V19.5197C22.7192 19.0798 22.3518 18.7245 21.8969 18.7188H18.0318C17.5744 18.7188 17.2036 19.0774 17.2036 19.5197V21.1215C17.2036 21.5638 17.5744 21.9223 18.0318 21.9223H21.8969Z" fill="#9099AC"/>
<path fill-rule="evenodd" clip-rule="evenodd" d="M5.50909 12.1301H10.114C11.4863 12.1301 12.5987 13.2058 12.5987 14.5328V21.1215C12.5987 22.4484 11.4863 23.5241 10.114 23.5241H5.50909C4.13684 23.5241 3.02441 22.4484 3.02441 21.1215V14.5328C3.02441 13.2058 4.13684 12.1301 5.50909 12.1301ZM10.114 21.9223C10.5689 21.9166 10.9363 21.5614 10.9422 21.1215V14.5328C10.9363 14.0929 10.5689 13.7376 10.114 13.7319H5.50909C5.05416 13.7376 4.68681 14.0929 4.68086 14.5328V21.1215C4.68681 21.5614 5.05416 21.9166 5.50909 21.9223H10.114Z" fill="#9099AC"/>
</svg>
