<svg width="43" height="40" viewBox="0 0 43 40" fill="none" xmlns="http://www.w3.org/2000/svg">
<path d="M25.0087 12.6957L25.0085 12.6957C24.4529 12.6966 23.9933 12.2639 23.9603 11.7096C23.9625 11.01 23.6863 10.3381 23.1925 9.84225C22.6981 9.34566 22.0261 9.0665 21.3253 9.0665H12.4528C12.0147 9.0665 11.6595 9.42169 11.6595 9.85984C11.6595 10.298 12.0147 10.6532 12.4528 10.6532H21.3248C21.9019 10.6588 22.3683 11.1253 22.3737 11.7024L22.3737 11.7032C22.3983 13.1409 23.5708 14.2934 25.0087 14.2932H30.3543C30.6609 14.329 30.9612 14.186 31.1267 13.925C31.2933 13.6621 31.2933 13.3267 31.1267 13.0639C30.9612 12.8028 30.6609 12.6599 30.3543 12.6957L25.0087 12.6957ZM27.2083 15.2956H27.2078H22.8745C22.6844 15.2956 22.5303 15.1415 22.5303 14.9515C22.5303 13.1013 21.0305 11.6015 19.1803 11.6015H14.8473C13.5815 11.5956 12.3656 12.0943 11.4685 12.9873C10.5713 13.8803 10.067 15.094 10.067 16.3598L10.067 26.1098L10.067 26.11C10.0731 28.7293 12.1949 30.8512 14.8143 30.8573H14.8145L27.2078 30.8573L27.2085 30.8573C29.8192 30.8391 31.9276 28.7207 31.9337 26.11V26.1098V20.0323V20.0321C31.9276 17.423 29.8173 15.3078 27.2083 15.2956ZM19.1262 13.2098V13.2098L19.1279 13.2098C19.5951 13.2015 20.0461 13.3814 20.3794 13.7089C20.7127 14.0364 20.9004 14.4841 20.9003 14.9514L20.9003 14.952C20.9066 16.0199 21.7741 16.8823 22.842 16.8823H27.1753C28.915 16.8823 30.3253 18.2926 30.3253 20.0323L30.3253 20.0328L30.3578 26.1098C30.3578 26.1098 30.3578 26.1099 30.3578 26.11C30.3577 27.8496 28.9475 29.2598 27.2078 29.2598H14.7928C13.0531 29.2598 11.6428 27.8495 11.6428 26.1098V16.3598C11.6428 14.6201 13.0531 13.2098 14.7928 13.2098H19.1262Z" fill="#9099AC" stroke="#9099AC" stroke-width="0.2"/>
</svg>
