<svg width="27" height="26" viewBox="0 0 27 26" fill="none" xmlns="http://www.w3.org/2000/svg">
<path d="M17.5087 5.69567L17.5085 5.69567C16.9529 5.69656 16.4933 5.26389 16.4603 4.70962C16.4625 4.00996 16.1863 3.33811 15.6925 2.84225C15.1981 2.34566 14.5261 2.0665 13.8253 2.0665H4.95283C4.51468 2.0665 4.15949 2.42169 4.15949 2.85984C4.15949 3.29798 4.51468 3.65317 4.95283 3.65317H13.8248C14.4019 3.65878 14.8683 4.12533 14.8737 4.70243L14.8737 4.70321C14.8983 6.14086 16.0708 7.29338 17.5087 7.29317H22.8543C23.1609 7.32895 23.4612 7.18601 23.6267 6.92496C23.7933 6.66212 23.7933 6.32673 23.6267 6.06388C23.4612 5.80284 23.1609 5.65989 22.8543 5.69567L17.5087 5.69567ZM19.7083 8.29562H19.7078H15.3745C15.1844 8.29562 15.0303 8.14153 15.0303 7.95145C15.0303 6.1013 13.5305 4.60145 11.6803 4.60145H7.34725C6.08151 4.59562 4.8656 5.09434 3.96849 5.98729C3.07134 6.88029 2.56698 8.09396 2.56699 9.35979L2.56699 19.1098L2.56699 19.11C2.57308 21.7293 4.69494 23.8512 7.31426 23.8573H7.31449L19.7078 23.8573L19.7085 23.8573C22.3192 23.8391 24.4276 21.7207 24.4337 19.11V19.1098V13.0323V13.0321C24.4276 10.423 22.3173 8.30778 19.7083 8.29562ZM11.6262 6.20979V6.2098L11.6279 6.20977C12.0951 6.20153 12.5461 6.38138 12.8794 6.7089C13.2127 7.03642 13.4004 7.48415 13.4003 7.95144L13.4003 7.95204C13.4066 9.01993 14.2741 9.88231 15.342 9.88229H19.6753C21.415 9.88229 22.8253 11.2926 22.8253 13.0323L22.8253 13.0328L22.8578 19.1098C22.8578 19.1098 22.8578 19.1099 22.8578 19.11C22.8577 20.8496 21.4475 22.2598 19.7078 22.2598H7.29283C5.55313 22.2598 4.14283 20.8495 4.14283 19.1098V9.35979C4.14283 7.62009 5.55313 6.20979 7.29283 6.20979H11.6262Z" fill="#9099AC" stroke="#9099AC" stroke-width="0.2"/>
</svg>
