<svg width="43" height="40" viewBox="0 0 43 40" fill="none" xmlns="http://www.w3.org/2000/svg">
<path d="M16 28.25C16 25.9028 18.6482 24 21.915 24C25.1818 24 27.83 25.9028 27.83 28.25" stroke="#9099AC" stroke-width="1.5" stroke-linecap="round" stroke-linejoin="round"/>
<path d="M21.5 22C23.433 22 25 20.433 25 18.5C25 16.567 23.433 15 21.5 15C19.567 15 18 16.567 18 18.5C18 20.433 19.567 22 21.5 22Z" stroke="#9099AC" stroke-width="1.5" stroke-linecap="round" stroke-linejoin="round"/>
<path d="M21.75 31.25C27.549 31.25 32.25 26.549 32.25 20.75C32.25 14.951 27.549 10.25 21.75 10.25C15.951 10.25 11.25 14.951 11.25 20.75C11.25 26.549 15.951 31.25 21.75 31.25Z" stroke="#9099AC" stroke-width="1.5" stroke-miterlimit="10" stroke-linecap="round" stroke-linejoin="round"/>
</svg>
