<svg width="43" height="40" viewBox="0 0 43 40" fill="none" xmlns="http://www.w3.org/2000/svg">
<path fill-rule="evenodd" clip-rule="evenodd" d="M31.325 23.85V13.75C31.325 11.1612 29.2263 9.0625 26.6375 9.0625H15.6875C13.0987 9.0625 11 11.1612 11 13.75V26.925C11 29.141 12.7965 30.9375 15.0125 30.9375H30.3875C30.9053 30.9375 31.325 30.5178 31.325 30C31.325 29.4822 30.9053 29.0625 30.3875 29.0625H15.0125C13.832 29.0625 12.875 28.1055 12.875 26.925C12.875 25.7445 13.832 24.7875 15.0125 24.7875H30.3875C30.9053 24.7875 31.325 24.3678 31.325 23.85ZM12.875 23.5375V13.75C12.875 12.1967 14.1342 10.9375 15.6875 10.9375H26.6375C28.1908 10.9375 29.45 12.1967 29.45 13.75V22.9125H15.0125C14.2552 22.9143 13.514 23.131 12.875 23.5375Z" fill="#9099AC"/>
<path d="M14.075 26.925C14.075 26.4072 14.4947 25.9875 15.0125 25.9875H28.85C29.3678 25.9875 29.7875 26.4072 29.7875 26.925C29.7875 27.4428 29.3678 27.8625 28.85 27.8625H15.0125C14.4947 27.8625 14.075 27.4428 14.075 26.925Z" fill="#9099AC"/>
</svg>
