<svg width="21" height="22" viewBox="0 0 21 22" fill="none" xmlns="http://www.w3.org/2000/svg">
<path fill-rule="evenodd" clip-rule="evenodd" d="M20.825 14.85V4.75C20.825 2.16117 18.7263 0.0625 16.1375 0.0625H5.1875C2.59867 0.0625 0.5 2.16117 0.5 4.75V17.925C0.5 20.141 2.29646 21.9375 4.5125 21.9375H19.8875C20.4053 21.9375 20.825 21.5178 20.825 21C20.825 20.4822 20.4053 20.0625 19.8875 20.0625H4.5125C3.33199 20.0625 2.375 19.1055 2.375 17.925C2.375 16.7445 3.33199 15.7875 4.5125 15.7875H19.8875C20.4053 15.7875 20.825 15.3678 20.825 14.85ZM2.375 14.5375V4.75C2.375 3.1967 3.6342 1.9375 5.1875 1.9375H16.1375C17.6908 1.9375 18.95 3.1967 18.95 4.75V13.9125H4.5125C3.7552 13.9143 3.01397 14.131 2.375 14.5375Z" fill="#9099AC"/>
<path d="M3.575 17.925C3.575 17.4072 3.99473 16.9875 4.5125 16.9875H18.35C18.8678 16.9875 19.2875 17.4072 19.2875 17.925C19.2875 18.4428 18.8678 18.8625 18.35 18.8625H4.5125C3.99473 18.8625 3.575 18.4428 3.575 17.925Z" fill="#9099AC"/>
</svg>
