<svg width="40" height="38" viewBox="0 0 40 38" fill="none" xmlns="http://www.w3.org/2000/svg">
<path d="M20.0008 22.3248C21.4131 22.3248 22.7675 21.7638 23.7661 20.7652C24.7648 19.7665 25.3258 18.4121 25.3258 16.9998C25.3258 15.5875 24.7648 14.2331 23.7661 13.2345C22.7675 12.2358 21.4131 11.6748 20.0008 11.6748C18.5885 11.6748 17.2341 12.2358 16.2354 13.2345C15.2368 14.2331 14.6758 15.5875 14.6758 16.9998C14.6758 18.4121 15.2368 19.7665 16.2354 20.7652C17.2341 21.7638 18.5885 22.3248 20.0008 22.3248ZM21.4454 20.4875C20.9874 20.6772 20.4965 20.7748 20.0008 20.7748C18.9996 20.7748 18.0394 20.3771 17.3315 19.6691C16.6235 18.9612 16.2258 18.001 16.2258 16.9998C16.2258 15.9986 16.6235 15.0384 17.3315 14.3305C18.0394 13.6225 18.9996 13.2248 20.0008 13.2248C20.4965 13.2248 20.9874 13.3224 21.4454 13.5122C21.9034 13.7019 22.3196 13.9799 22.6701 14.3305C23.0206 14.681 23.2987 15.0972 23.4884 15.5552C23.6781 16.0132 23.7758 16.5041 23.7758 16.9998C23.7758 17.4955 23.6781 17.9864 23.4884 18.4444C23.2987 18.9024 23.0206 19.3186 22.6701 19.6691C22.3196 20.0197 21.9034 20.2977 21.4454 20.4875Z" fill="#9099AC" stroke="#9099AC" stroke-width="0.25"/>
<path d="M13.82 24.308C12.6041 24.4853 11.6872 25.4255 11.4729 26.5821C9.51136 24.451 8.42103 21.6568 8.425 18.7541V18.7539C8.425 12.3613 13.6074 7.17891 20 7.17891C26.3926 7.17891 31.575 12.3613 31.575 18.7539V18.7541C31.579 21.6558 30.4894 24.4491 28.5291 26.58C28.3179 25.4272 27.3975 24.4964 26.1889 24.3293C21.6184 23.6967 18.4188 23.6359 13.82 24.308ZM13.82 24.308L13.838 24.4317M13.82 24.308C13.8199 24.308 13.8199 24.308 13.8199 24.308L13.838 24.4317M13.838 24.4317C12.6453 24.6056 11.7524 25.549 11.5803 26.6972L13.838 24.4317ZM20.0002 30.3289H19.9998C17.7613 30.3324 15.5705 29.6836 13.695 28.4622C13.5435 28.2726 13.3896 28.0771 13.2346 27.8754C13.0656 27.6536 12.9743 27.3823 12.975 27.1035V27.1032C12.975 26.4635 13.4342 25.9306 14.0439 25.8417C18.4799 25.1936 21.5314 25.2491 25.9762 25.8645C26.2688 25.9071 26.5361 26.054 26.7289 26.2781C26.9217 26.5025 27.0269 26.789 27.025 27.0848V27.0856C27.025 27.3693 26.9274 27.6441 26.7523 27.8579C26.5576 28.0952 26.3653 28.3244 26.1767 28.5449C24.329 29.7136 22.1868 30.3324 20.0002 30.3289ZM20 31.8789C27.2489 31.8789 33.125 26.0028 33.125 18.7539C33.125 11.505 27.2489 5.62891 20 5.62891C12.7511 5.62891 6.875 11.505 6.875 18.7539C6.875 26.0028 12.7511 31.8789 20 31.8789Z" fill="#9099AC" stroke="#9099AC" stroke-width="0.25"/>
</svg>
