<svg width="27" height="26" viewBox="0 0 27 26" fill="none" xmlns="http://www.w3.org/2000/svg">
<path d="M8.5 21.25C8.5 18.9028 11.1482 17 14.415 17C17.6818 17 20.33 18.9028 20.33 21.25" stroke="#9099AC" stroke-width="1.5" stroke-linecap="round" stroke-linejoin="round"/>
<path d="M14 15C15.933 15 17.5 13.433 17.5 11.5C17.5 9.567 15.933 8 14 8C12.067 8 10.5 9.567 10.5 11.5C10.5 13.433 12.067 15 14 15Z" stroke="#9099AC" stroke-width="1.5" stroke-linecap="round" stroke-linejoin="round"/>
<path d="M14.25 24.25C20.049 24.25 24.75 19.549 24.75 13.75C24.75 7.95101 20.049 3.25 14.25 3.25C8.45101 3.25 3.75 7.95101 3.75 13.75C3.75 19.549 8.45101 24.25 14.25 24.25Z" stroke="#9099AC" stroke-width="1.5" stroke-miterlimit="10" stroke-linecap="round" stroke-linejoin="round"/>
</svg>
